# File created by Blade
# Date/Time:  Wed Jan 21 16:14:13 2015
# Frame Rate: 120.000 fps
#------------------------------------------------------
:FULLY-SPECIFIED
:DEGREES
625
root 18.606790 35.507621 -20.281440 -172.595962 -5.938649 -179.450288
Spine -18.694471 -0.366412 0.546833
Head 11.124521 -3.220384 -2.015407
LeftShoulder -9.024163 -34.473506 16.962216
LeftArm 9.768040 12.295041 -6.962416
LeftForeArm 12.994077 -0.000000 -2.301228
LeftHand -10.234621 -0.000000 -4.544808
LeftHandThumb1 -26.253704 0.000000 33.147579
RightShoulder -9.899377 -1.450486 -11.024600
RightArm 8.233153 38.116385 10.078750
RightForeArm -34.329915 -0.000000 2.890387
RightHand -4.611823 -0.000000 9.650847
RightHandThumb1 -24.326973 -0.000000 -32.862282
LeftUpLeg -0.247394 5.488219 0.278852
LeftLeg -4.715102 -0.000000 0.000000
LeftFoot -21.381879 24.477393 -12.259041
LeftToeBase 27.372358 -0.000000 -0.000000
RightUpLeg 0.068591 -9.253434 1.681518
RightLeg -3.045797 -0.000000 0.000000
RightFoot -22.559575 -28.883464 14.305174
RightToeBase 23.703154 -0.000000 -0.000000
626
root 18.604527 35.507233 -20.284659 -172.582822 -5.931080 -179.446842
Spine -18.709720 -0.340251 0.557376
Head 11.118592 -3.210384 -2.025138
LeftShoulder -9.023920 -34.480948 16.969806
LeftArm 9.762366 12.287391 -7.007388
LeftForeArm 12.948837 -0.000000 -2.289894
LeftHand -10.246005 -0.000000 -4.566712
LeftHandThumb1 -26.253704 0.000000 33.147579
RightShoulder -9.911612 -1.481798 -11.034454
RightArm 8.287225 38.140411 10.133625
RightForeArm -34.326353 0.000000 2.905986
RightHand -4.598374 -0.000000 9.721097
RightHandThumb1 -24.326973 -0.000000 -32.862282
LeftUpLeg -0.240604 5.500523 0.278253
LeftLeg -4.740615 -0.000000 0.000000
LeftFoot -21.381090 24.469807 -12.266189
LeftToeBase 27.352892 -0.000000 -0.000000
RightUpLeg 0.062460 -9.215050 1.681357
RightLeg -3.050601 -0.000000 0.000000
RightFoot -22.571636 -28.912802 14.345242
RightToeBase 23.634229 -0.000000 -0.000000
627
root 18.601745 35.506691 -20.286037 -172.560530 -5.921920 -179.449145
Spine -18.726180 -0.311773 0.561357
Head 11.095904 -3.199593 -2.035413
LeftShoulder -9.020951 -34.465486 16.970913
LeftArm 9.767534 12.237183 -7.044863
LeftForeArm 12.910216 -0.000000 -2.299675
LeftHand -10.243677 0.000000 -4.628763
LeftHandThumb1 -26.253704 0.000000 33.147579
RightShoulder -9.937207 -1.489471 -11.045965
RightArm 8.361696 38.206211 10.207960
RightForeArm -34.380069 -0.000000 2.915955
RightHand -4.637409 0.000000 9.740537
RightHandThumb1 -24.326973 -0.000000 -32.862282
LeftUpLeg -0.249452 5.525661 0.268826
LeftLeg -4.760267 -0.000000 0.000000
LeftFoot -21.378877 24.453707 -12.270471
LeftToeBase 27.390210 -0.000000 -0.000000
RightUpLeg 0.036797 -9.184740 1.675956
RightLeg -3.039054 -0.000000 0.000000
RightFoot -22.580043 -28.937331 14.331293
RightToeBase 23.619796 -0.000000 -0.000000
628
root 18.600820 35.506515 -20.285145 -172.503731 -5.891674 -179.442766
Spine -18.783969 -0.267812 0.568354
Head 11.071955 -3.181995 -2.023975
LeftShoulder -9.021170 -34.500904 16.994481
LeftArm 9.751684 12.256036 -7.085710
LeftForeArm 12.867217 -0.000000 -2.309222
LeftHand -10.220110 -0.000000 -4.644886
LeftHandThumb1 -26.253704 0.000000 33.147579
RightShoulder -9.958378 -1.515034 -11.054861
RightArm 8.438487 38.282405 10.289475
RightForeArm -34.363669 0.000000 2.932799
RightHand -4.597060 -0.000000 9.798882
RightHandThumb1 -24.326973 -0.000000 -32.862282
LeftUpLeg -0.298096 5.582047 0.264450
LeftLeg -4.777918 -0.000000 0.000000
LeftFoot -21.357648 24.441534 -12.248321
LeftToeBase 27.161151 -0.000000 -0.000000
RightUpLeg -0.031078 -9.110101 1.687018
RightLeg -3.026476 -0.000000 0.000000
RightFoot -22.589568 -28.979341 14.346775
RightToeBase 23.588173 -0.000000 -0.000000
629
root 18.598079 35.506402 -20.284934 -172.448145 -5.879051 -179.437101
Spine -18.843347 -0.244544 0.585982
Head 11.055810 -3.153771 -2.026149
LeftShoulder -9.027990 -34.478774 17.010728
LeftArm 9.748146 12.200924 -7.135652
LeftForeArm 12.866664 0.000000 -2.317017
LeftHand -10.238931 -0.000000 -4.664401
LeftHandThumb1 -26.253704 0.000000 33.147579
RightShoulder -9.972320 -1.541670 -11.067047
RightArm 8.511175 38.346237 10.360518
RightForeArm -34.313805 -0.000000 2.950730
RightHand -4.559590 -0.000000 9.896624
RightHandThumb1 -24.326973 -0.000000 -32.862282
LeftUpLeg -0.342529 5.604690 0.258254
LeftLeg -4.793645 -0.000000 0.000000
LeftFoot -21.366458 24.415845 -12.256048
LeftToeBase 27.400969 -0.000000 -0.000000
RightUpLeg -0.092947 -9.075250 1.695385
RightLeg -3.017833 -0.000000 0.000000
RightFoot -22.602725 -28.996737 14.357944
RightToeBase 23.632350 -0.000000 -0.000000
